# xmcd
#
# Track frame offsets:
#	150
#	11404
#	23482
#	36236
#	46024
#	55992
#	67039
#	77979
#	91192
#	100914
#
# Disc length: 1479 seconds
#
# Revision: 1
# Processed by: cddbd v1.5.1PL0 Copyright (c) Steve Scherf et al.
# Submitted via: audiograbber 1.83.01
#
DISCID=7205c50a
DTITLE=Billy Crash Craddock - Greatest Hits Vol 1
DYEAR=1900
DGENRE=Country
TTITLE0=Knock Three Times
TTITLE1=Dream Lover
TTITLE2=Don't Be Angry
TTITLE3=Slipin'n'Slidin'
TTITLE4=Till The Water Stops Running
TTITLE5=Sweet Magnolia Blossom
TTITLE6=You Better Move On
TTITLE7=Afraid I'll Want To Love Her One More Time
TTITLE8=I'm Gonna Knock On Your Door
TTITLE9=Ain't Nothin' Shakin'
EXTD=
EXTT0=
EXTT1=
EXTT2=
EXTT3=
EXTT4=
EXTT5=
EXTT6=
EXTT7=
EXTT8=
EXTT9=
PLAYORDER=
